<svg xmlns="http://www.w3.org/2000/svg" xmlns:xlink="http://www.w3.org/1999/xlink" width="500" zoomAndPan="magnify" viewBox="0 0 375 374.999991" height="500" preserveAspectRatio="xMidYMid meet" version="1.0"><defs><filter x="0%" y="0%" width="100%" height="100%" id="c5f44d5d24"><feColorMatrix values="0 0 0 0 1 0 0 0 0 1 0 0 0 0 1 0 0 0 1 0" color-interpolation-filters="sRGB"/></filter><clipPath id="aee8622bd4"><path d="M 171.777344 195 L 187.613281 195 L 187.613281 212.488281 L 171.777344 212.488281 Z M 171.777344 195 " clip-rule="nonzero"/></clipPath><clipPath id="0899e71d8d"><path d="M 177.601562 208.199219 C 171.824219 201.601562 171.976562 200.851562 172.273438 200.324219 C 172.648438 199.800781 173.398438 199.273438 174.148438 199.351562 C 175.425781 199.351562 177.601562 201.074219 179.398438 202.425781 C 181.648438 204.074219 185.773438 207.074219 186.449219 208.949219 C 186.75 209.925781 186.449219 211.050781 186.074219 211.648438 C 185.699219 212.101562 185.023438 212.398438 184.5 212.398438 C 183.976562 212.476562 183.601562 212.398438 182.851562 212.023438 C 180.75 210.824219 173.625 203.773438 172.351562 201.449219 C 171.824219 200.476562 171.675781 199.875 171.898438 199.199219 C 172.050781 198.523438 172.875 197.773438 173.476562 197.550781 C 174 197.324219 174.523438 197.324219 175.199219 197.625 C 176.550781 198.148438 178.574219 200.773438 180.523438 201.976562 C 182.476562 203.175781 185.851562 203.699219 186.824219 204.824219 C 187.425781 205.5 187.648438 206.324219 187.5 207 C 187.351562 207.75 186.375 208.875 185.476562 208.949219 C 184.125 209.175781 181.726562 207.148438 179.773438 205.726562 C 177.449219 203.851562 173.398438 200.398438 172.726562 198.523438 C 172.351562 197.625 172.5 196.800781 172.875 196.199219 C 173.25 195.601562 174.074219 195 174.824219 195 C 176.101562 195.074219 178.574219 197.101562 179.699219 198.375 C 180.675781 199.425781 181.574219 200.851562 181.726562 201.976562 C 181.875 202.726562 181.648438 203.699219 181.199219 204.226562 C 180.75 204.75 179.699219 205.199219 179.023438 205.050781 C 178.273438 204.898438 177 203.699219 176.851562 202.949219 C 176.699219 202.273438 177.074219 201.148438 177.601562 200.773438 C 178.273438 200.25 179.925781 200.101562 180.601562 200.476562 C 181.273438 200.773438 181.800781 201.824219 181.800781 202.5 C 181.800781 203.175781 181.425781 204.226562 180.824219 204.601562 C 180.148438 204.976562 178.800781 205.050781 177.75 204.523438 C 176.101562 203.773438 173.324219 200.023438 172.726562 198.523438 C 172.425781 197.773438 172.425781 197.324219 172.648438 196.726562 C 172.875 196.125 173.625 195.375 174.226562 195.148438 C 174.898438 194.925781 175.574219 195.074219 176.476562 195.601562 C 178.949219 196.800781 186.675781 203.476562 187.425781 205.875 C 187.726562 206.773438 187.351562 207.523438 186.976562 208.125 C 186.675781 208.574219 186.226562 208.949219 185.476562 208.949219 C 184.125 209.101562 180.976562 207.75 178.875 206.476562 C 176.476562 205.125 172.726562 202.574219 172.050781 200.925781 C 171.675781 200.101562 171.824219 199.199219 172.125 198.675781 C 172.351562 198.148438 172.875 197.699219 173.476562 197.550781 C 174.074219 197.398438 174.75 197.398438 175.726562 197.925781 C 178.125 199.125 185.398438 206.699219 186.449219 208.949219 C 186.75 209.625 186.75 210.074219 186.601562 210.601562 C 186.449219 211.125 186.148438 211.800781 185.625 212.023438 C 184.949219 212.398438 183.824219 212.324219 182.851562 212.023438 C 181.425781 211.5 179.625 209.699219 178.273438 208.273438 C 176.925781 206.925781 176.023438 204.449219 174.824219 203.625 C 174 203.023438 172.800781 203.398438 172.351562 202.875 C 171.898438 202.425781 171.824219 201.375 172.050781 200.773438 C 172.351562 200.175781 173.476562 199.425781 174.148438 199.351562 C 174.675781 199.273438 175.050781 199.5 175.648438 199.875 C 177 200.773438 180.675781 204.226562 181.351562 205.648438 C 181.648438 206.25 181.648438 206.699219 181.5 207.226562 C 181.425781 207.675781 181.050781 208.273438 180.601562 208.574219 C 180.148438 208.800781 179.550781 208.949219 179.023438 208.949219 C 178.5 208.875 177.601562 208.125 177.601562 208.125 " clip-rule="nonzero"/></clipPath><clipPath id="f99061c920"><path d="M 173.445312 185.820312 L 195.382812 185.820312 L 195.382812 204.40625 L 173.445312 204.40625 Z M 173.445312 185.820312 " clip-rule="nonzero"/></clipPath><clipPath id="3d746c1e18"><path d="M 181.5 185.851562 C 192.449219 194.925781 195.824219 197.550781 195.300781 199.273438 C 194.699219 201.601562 186.523438 204.824219 182.773438 204.300781 C 179.25 203.773438 173.851562 199.800781 173.476562 196.875 C 173.023438 193.726562 181.5 185.851562 181.5 185.851562 " clip-rule="nonzero"/></clipPath><mask id="a8ba40fab2"><g filter="url(#c5f44d5d24)"><rect x="-37.5" width="450" fill="#000000" y="-37.499999" height="449.999989" fill-opacity="0.5"/></g></mask><clipPath id="6b76766377"><path d="M 0.445312 0.820312 L 22.382812 0.820312 L 22.382812 19.40625 L 0.445312 19.40625 Z M 0.445312 0.820312 " clip-rule="nonzero"/></clipPath><clipPath id="15cbe275b6"><path d="M 8.5 0.851562 C 19.449219 9.925781 22.824219 12.550781 22.300781 14.273438 C 21.699219 16.601562 13.523438 19.824219 9.773438 19.300781 C 6.25 18.773438 0.851562 14.800781 0.476562 11.875 C 0.0234375 8.726562 8.5 0.851562 8.5 0.851562 " clip-rule="nonzero"/></clipPath><clipPath id="30afa3a565"><rect x="0" width="23" y="0" height="20"/></clipPath><clipPath id="dd2315596b"><path d="M 172.023438 184.398438 L 196.851562 184.398438 L 196.851562 208.300781 L 172.023438 208.300781 Z M 172.023438 184.398438 " clip-rule="nonzero"/></clipPath><clipPath id="3a152f2ce7"><path d="M 183.226562 205.199219 C 172.800781 198.449219 172.351562 197.925781 172.273438 197.175781 C 172.125 196.351562 172.5 194.925781 173.101562 194.476562 C 173.699219 194.101562 175.125 194.175781 175.726562 194.625 C 176.324219 195 176.476562 197.101562 176.550781 197.101562 C 176.625 197.101562 175.875 195.074219 176.25 194.851562 C 177.148438 194.324219 186.898438 202.351562 188.476562 204.226562 C 189 204.824219 189.148438 205.125 189.226562 205.648438 C 189.300781 206.175781 189.074219 206.851562 188.851562 207.226562 C 188.550781 207.675781 187.949219 208.050781 187.5 208.125 C 186.976562 208.273438 186.601562 208.273438 185.851562 207.976562 C 183.601562 206.925781 175.125 199.351562 174 196.726562 C 173.550781 195.675781 173.625 194.699219 174 194.101562 C 174.300781 193.574219 175.050781 193.199219 175.875 193.125 C 177.074219 193.050781 178.800781 193.800781 180.601562 194.699219 C 183.226562 195.976562 188.773438 199.050781 189.675781 200.851562 C 190.050781 201.75 189.824219 202.875 189.375 203.398438 C 188.851562 203.925781 187.648438 204.148438 186.449219 203.773438 C 183.449219 202.949219 174.675781 195.226562 173.101562 192.976562 C 172.574219 192.148438 172.351562 191.625 172.425781 191.101562 C 172.5 190.5 173.101562 189.75 173.625 189.523438 C 174.148438 189.226562 174.824219 189.375 175.574219 189.601562 C 176.925781 189.976562 178.726562 191.25 180.523438 192.523438 C 182.925781 194.101562 187.425781 196.800781 188.398438 198.75 C 189 199.726562 189.148438 201.074219 188.699219 201.675781 C 188.25 202.199219 186.898438 202.648438 185.851562 202.273438 C 183.523438 201.375 178.351562 193.351562 177.449219 191.023438 C 177.074219 190.125 177.074219 189.523438 177.300781 188.925781 C 177.523438 188.324219 178.351562 187.800781 178.949219 187.648438 C 179.398438 187.5 179.851562 187.574219 180.449219 187.875 C 181.949219 188.550781 184.875 190.800781 186.976562 192.75 C 189.226562 194.773438 192.898438 198.148438 193.351562 200.023438 C 193.574219 200.925781 193.351562 201.976562 192.824219 202.425781 C 192.300781 202.875 191.324219 203.023438 190.351562 202.800781 C 188.25 202.199219 184.050781 198.226562 181.648438 195.75 C 179.550781 193.574219 177 190.574219 176.476562 189 C 176.25 188.175781 176.324219 187.574219 176.550781 187.050781 C 176.773438 186.675781 177.226562 186.300781 177.675781 186.148438 C 178.199219 186 178.726562 186.074219 179.550781 186.449219 C 181.875 187.648438 190.351562 195.148438 191.324219 197.699219 C 191.699219 198.675781 191.550781 199.574219 191.101562 200.101562 C 190.574219 200.625 189.300781 201 188.324219 200.550781 C 186 199.5 180.75 190.199219 179.925781 187.726562 C 179.625 186.824219 179.625 186.226562 179.851562 185.699219 C 180.148438 185.175781 180.898438 184.648438 181.5 184.5 C 182.023438 184.425781 182.550781 184.648438 183.375 185.175781 C 185.550781 186.601562 193.125 194.25 193.800781 196.800781 C 194.023438 197.851562 193.726562 198.824219 193.199219 199.273438 C 192.601562 199.726562 191.398438 199.726562 190.273438 199.273438 C 187.800781 198.226562 181.574219 191.851562 180.523438 189.375 C 180.074219 188.175781 180.148438 186.976562 180.523438 186.375 C 180.824219 185.925781 181.425781 185.699219 181.949219 185.625 C 182.550781 185.625 183.074219 185.851562 183.898438 186.375 C 186 187.949219 192.300781 195.449219 193.199219 198.148438 C 193.574219 199.425781 193.5 200.625 192.976562 201.148438 C 192.449219 201.675781 191.023438 201.824219 190.050781 201.300781 C 188.101562 200.175781 185.023438 192.601562 184.574219 190.574219 C 184.425781 189.824219 184.425781 189.449219 184.648438 188.925781 C 184.800781 188.476562 185.25 187.949219 185.773438 187.800781 C 186.375 187.574219 187.351562 187.574219 188.324219 188.175781 C 190.5 189.375 195.976562 195.523438 196.574219 197.851562 C 196.875 198.898438 196.574219 199.875 196.125 200.398438 C 195.824219 200.851562 195.148438 201.074219 194.699219 201.074219 C 194.175781 201.148438 193.726562 201 193.125 200.625 C 191.699219 199.726562 187.875 195.75 187.199219 194.25 C 186.976562 193.574219 186.976562 193.125 187.125 192.601562 C 187.351562 192.074219 188.101562 191.324219 188.699219 191.175781 C 189.300781 190.949219 190.125 191.101562 190.800781 191.625 C 191.925781 192.449219 193.648438 195.976562 193.648438 197.550781 C 193.648438 198.523438 193.050781 199.574219 192.449219 199.949219 C 191.925781 200.324219 190.875 200.324219 190.273438 200.023438 C 189.675781 199.726562 188.925781 198.523438 188.925781 197.851562 C 188.925781 197.175781 189.449219 196.199219 190.050781 195.898438 C 190.726562 195.601562 192.300781 195.675781 192.898438 196.125 C 193.425781 196.574219 193.800781 197.550781 193.648438 198.226562 C 193.5 198.976562 192.375 200.101562 191.625 200.25 C 190.949219 200.398438 189.976562 199.949219 189.523438 199.5 C 189.148438 198.976562 188.851562 197.925781 189 197.324219 C 189.148438 196.726562 189.898438 195.898438 190.5 195.675781 C 191.101562 195.449219 192.148438 195.601562 192.675781 195.976562 C 193.199219 196.351562 193.726562 197.398438 193.648438 198.074219 C 193.574219 198.824219 192.675781 199.949219 191.925781 200.175781 C 191.25 200.398438 190.125 200.023438 189.449219 199.351562 C 188.324219 198.226562 186.976562 194.550781 187.050781 193.199219 C 187.050781 192.523438 187.351562 192.074219 187.726562 191.699219 C 188.101562 191.324219 188.625 191.023438 189.226562 191.101562 C 190.273438 191.175781 191.925781 192.449219 193.125 193.574219 C 194.550781 194.925781 196.800781 197.550781 196.800781 198.976562 C 196.800781 199.800781 195.898438 200.773438 195.226562 201 C 194.550781 201.226562 193.726562 200.851562 192.75 200.25 C 190.648438 198.898438 185.25 192.523438 184.574219 190.574219 C 184.351562 189.898438 184.425781 189.449219 184.648438 188.925781 C 184.875 188.398438 185.625 187.648438 186.300781 187.574219 C 186.976562 187.5 187.875 187.800781 188.699219 188.550781 C 190.351562 190.199219 193.574219 196.875 193.574219 199.125 C 193.648438 200.175781 193.199219 201.148438 192.601562 201.449219 C 191.925781 201.824219 190.800781 201.601562 189.675781 200.925781 C 187.199219 199.425781 180.976562 191.550781 180.226562 188.925781 C 179.925781 187.875 180.074219 186.898438 180.523438 186.375 C 181.050781 185.851562 182.324219 185.625 183.449219 186.074219 C 186.074219 186.976562 193.273438 194.25 193.800781 196.800781 C 194.023438 197.925781 193.425781 199.125 192.75 199.574219 C 192.226562 199.875 191.25 199.800781 190.273438 199.273438 C 187.800781 198 180.675781 190.351562 179.925781 187.726562 C 179.625 186.601562 180 185.398438 180.523438 184.949219 C 181.050781 184.5 182.101562 184.351562 182.925781 184.875 C 185.175781 186 190.800781 194.925781 191.324219 197.699219 C 191.550781 198.898438 191.25 199.949219 190.726562 200.476562 C 190.199219 200.851562 189.300781 200.925781 188.324219 200.550781 C 185.699219 199.5 177.148438 191.625 176.476562 189 C 176.175781 187.875 176.699219 186.75 177.226562 186.375 C 177.75 186 178.726562 186.074219 179.550781 186.449219 C 180.976562 187.199219 182.324219 190.574219 184.273438 192.523438 C 186.601562 194.925781 192.074219 197.699219 193.125 199.5 C 193.574219 200.324219 193.574219 201 193.425781 201.523438 C 193.273438 202.050781 192.824219 202.574219 192.375 202.726562 C 191.773438 202.949219 190.800781 202.949219 189.898438 202.5 C 188.25 201.675781 186.449219 198.148438 184.425781 196.273438 C 182.324219 194.324219 178.199219 192.601562 177.449219 191.023438 C 177 190.125 177.226562 189 177.601562 188.476562 C 177.824219 188.023438 178.425781 187.726562 178.949219 187.648438 C 179.398438 187.5 179.851562 187.5 180.449219 187.875 C 182.324219 189 187.875 196.800781 188.773438 199.125 C 189.074219 200.023438 189.148438 200.625 188.925781 201.148438 C 188.773438 201.675781 188.324219 202.125 187.875 202.351562 C 187.351562 202.5 186.75 202.574219 185.851562 202.273438 C 183.226562 201.300781 173.324219 194.476562 172.5 192.074219 C 172.199219 191.175781 172.648438 190.199219 173.175781 189.75 C 173.699219 189.375 174.523438 189.226562 175.574219 189.601562 C 178.425781 190.425781 188.023438 197.699219 189.375 200.476562 C 189.898438 201.601562 189.824219 202.800781 189.375 203.398438 C 188.925781 203.925781 188.023438 204.148438 186.898438 204 C 184.351562 203.699219 176.699219 199.351562 174.824219 197.398438 C 174 196.574219 173.550781 195.824219 173.625 195.148438 C 173.699219 194.476562 174.601562 193.425781 175.273438 193.199219 C 176.023438 193.050781 176.699219 193.425781 177.75 194.023438 C 180.226562 195.523438 187.648438 202.5 188.851562 204.601562 C 189.226562 205.273438 189.300781 205.726562 189.226562 206.175781 C 189.148438 206.699219 188.851562 207.300781 188.476562 207.675781 C 188.101562 207.976562 187.425781 208.199219 186.898438 208.199219 C 186.449219 208.199219 186.074219 208.050781 185.398438 207.601562 C 183.300781 206.476562 175.875 201.226562 173.851562 198.824219 C 172.800781 197.699219 172.050781 196.574219 172.125 195.75 C 172.125 195.226562 172.648438 194.699219 173.101562 194.476562 C 173.625 194.175781 174.675781 194.101562 175.273438 194.324219 C 175.726562 194.476562 176.175781 195 176.398438 195.449219 C 176.625 195.898438 176.625 197.101562 176.550781 197.101562 C 176.476562 197.101562 175.949219 195.375 176.101562 195.226562 C 176.476562 195.074219 178.5 197.476562 179.925781 198.449219 C 181.574219 199.574219 184.726562 200.476562 185.699219 201.449219 C 186.226562 201.898438 186.449219 202.351562 186.523438 202.800781 C 186.601562 203.324219 186.449219 204 186.148438 204.375 C 185.851562 204.824219 185.324219 205.199219 184.800781 205.351562 C 184.351562 205.5 183.226562 205.199219 183.226562 205.199219 " clip-rule="nonzero"/></clipPath><clipPath id="51e061f0ab"><path d="M 181.945312 180.515625 L 196.128906 180.515625 L 196.128906 195.488281 L 181.945312 195.488281 Z M 181.945312 180.515625 " clip-rule="nonzero"/></clipPath><clipPath id="9f87ea11d8"><path d="M 186.449219 182.25 C 188.101562 186.601562 189.148438 186.375 189.75 186.824219 C 190.425781 187.273438 191.398438 188.175781 191.398438 188.773438 C 191.398438 189.449219 189.976562 189.898438 189.824219 190.648438 C 189.675781 191.550781 191.476562 193.800781 191.25 194.023438 C 191.023438 194.175781 189.449219 193.199219 189 192.601562 C 188.476562 192 188.699219 191.175781 188.25 190.351562 C 187.648438 189.148438 185.398438 187.425781 185.101562 186.148438 C 184.949219 185.324219 185.25 184.351562 185.625 183.824219 C 186 183.300781 186.675781 182.925781 187.273438 182.925781 C 188.023438 182.851562 189.976562 184.125 189.976562 184.273438 C 189.898438 184.425781 186.074219 183.675781 186.074219 183.523438 C 186.074219 183.375 188.023438 183 188.773438 183.226562 C 189.449219 183.449219 189.75 183.976562 190.5 184.726562 C 191.851562 186.226562 195.601562 190.425781 196.050781 192.226562 C 196.199219 192.976562 196.050781 193.574219 195.75 194.101562 C 195.449219 194.625 194.925781 195.148438 194.324219 195.300781 C 193.574219 195.523438 191.398438 194.476562 191.398438 194.550781 C 191.324219 194.625 193.050781 195.523438 193.125 195.449219 C 193.199219 195.375 190.875 194.101562 190.726562 193.273438 C 190.574219 192.449219 191.476562 190.800781 192.226562 190.351562 C 192.898438 189.976562 194.101562 190.125 194.773438 190.5 C 195.375 190.875 196.050781 191.851562 196.050781 192.601562 C 196.125 193.351562 195.601562 194.476562 195.074219 194.925781 C 194.476562 195.375 193.273438 195.601562 192.601562 195.375 C 191.851562 195.148438 191.023438 194.25 190.800781 193.574219 C 190.648438 192.824219 190.949219 191.625 191.324219 191.101562 C 191.699219 190.648438 192.226562 190.199219 192.824219 190.199219 C 193.648438 190.199219 195.75 191.324219 196.050781 192.226562 C 196.273438 192.976562 195.523438 194.476562 194.925781 195 C 194.398438 195.449219 193.648438 195.523438 193.050781 195.449219 C 192.449219 195.375 191.699219 195 191.398438 194.550781 C 191.023438 194.101562 191.324219 193.425781 190.949219 192.675781 C 190.199219 191.25 185.625 187.800781 185.925781 187.199219 C 186.148438 186.75 189.226562 187.574219 189.226562 187.425781 C 189.300781 187.351562 185.550781 186.976562 185.101562 186.148438 C 184.726562 185.625 185.101562 184.351562 185.625 183.824219 C 186.226562 183.226562 187.648438 182.773438 188.550781 183 C 189.75 183.375 191.023438 185.398438 191.925781 186.976562 C 192.976562 188.773438 194.699219 192 194.175781 193.273438 C 193.800781 194.101562 192.375 194.550781 191.476562 194.550781 C 190.648438 194.625 190.050781 194.25 189.148438 193.726562 C 187.5 192.601562 184.199219 189.449219 183.074219 187.425781 C 182.25 185.925781 181.949219 184.125 181.949219 183.074219 C 181.949219 182.398438 182.101562 181.875 182.476562 181.5 C 182.851562 181.050781 183.75 180.523438 184.351562 180.601562 C 185.101562 180.675781 186.449219 182.25 186.449219 182.25 " clip-rule="nonzero"/></clipPath><clipPath id="e34b97b4dc"><path d="M 162.535156 210.535156 L 177.066406 210.535156 L 177.066406 223.9375 L 162.535156 223.9375 Z M 162.535156 210.535156 " clip-rule="nonzero"/></clipPath><clipPath id="345929934c"><path d="M 166.648438 211.273438 C 172.574219 217.425781 175.800781 218.699219 176.550781 220.050781 C 177 220.800781 177 221.773438 176.851562 222.375 C 176.699219 222.898438 176.324219 223.351562 175.800781 223.574219 C 175.125 223.875 173.398438 223.800781 172.800781 223.273438 C 172.199219 222.824219 171.898438 221.773438 172.050781 221.023438 C 172.125 220.351562 172.800781 219.449219 173.398438 219.148438 C 174.074219 218.851562 175.199219 218.925781 175.800781 219.300781 C 176.398438 219.675781 176.925781 220.574219 177 221.324219 C 177.074219 222 176.550781 223.050781 176.023438 223.425781 C 175.5 223.875 174.601562 224.023438 173.699219 223.800781 C 171.976562 223.425781 168.976562 220.800781 167.101562 218.925781 C 165.300781 217.125 162.601562 214.273438 162.601562 212.699219 C 162.601562 211.875 163.425781 210.824219 164.101562 210.601562 C 164.773438 210.375 166.648438 211.273438 166.648438 211.273438 " clip-rule="nonzero"/></clipPath><clipPath id="02c7da3d0b"><path d="M 164.089844 198.476562 L 189.878906 198.476562 L 189.878906 222.195312 L 164.089844 222.195312 Z M 164.089844 198.476562 " clip-rule="nonzero"/></clipPath><clipPath id="46fdafa4c1"><path d="M 175.273438 221.25 C 167.773438 213 167.625 212.550781 167.773438 212.023438 C 167.851562 211.425781 168.449219 210.523438 169.050781 210.226562 C 169.574219 209.925781 170.25 210 171.226562 210.300781 C 173.476562 211.050781 180.375 215.625 181.351562 217.574219 C 181.726562 218.398438 181.574219 219.226562 181.199219 219.75 C 180.898438 220.351562 180 220.949219 179.324219 220.949219 C 178.351562 220.875 177.226562 219.75 175.949219 218.476562 C 173.398438 215.851562 167.324219 207.148438 166.574219 204.523438 C 166.351562 203.625 166.425781 203.023438 166.648438 202.5 C 166.875 202.050781 167.324219 201.675781 167.851562 201.523438 C 168.375 201.375 168.976562 201.449219 169.800781 201.824219 C 172.050781 202.726562 179.625 207.226562 180.824219 209.476562 C 181.425781 210.523438 181.425781 211.875 180.976562 212.398438 C 180.523438 213 178.949219 213.300781 178.050781 212.925781 C 176.550781 212.25 174.148438 207.976562 174 206.398438 C 173.851562 205.574219 174.148438 204.824219 174.601562 204.375 C 175.050781 203.925781 175.875 203.625 176.699219 203.773438 C 177.898438 204 179.398438 205.5 180.976562 207 C 183.375 209.101562 188.175781 213.976562 189.226562 216 C 189.675781 216.824219 189.898438 217.351562 189.75 217.875 C 189.523438 218.550781 188.773438 219.449219 187.949219 219.523438 C 186.75 219.75 184.949219 218.476562 182.925781 217.125 C 178.875 214.351562 168.300781 204.601562 166.5 201.898438 C 166.050781 201.148438 165.898438 200.699219 165.976562 200.175781 C 166.050781 199.648438 166.574219 198.976562 167.023438 198.75 C 167.625 198.523438 168.375 198.601562 169.273438 199.125 C 171.300781 200.25 177.601562 206.773438 177.375 208.574219 C 177.226562 209.476562 175.800781 210.375 175.050781 210.226562 C 173.699219 209.925781 171 205.125 171 203.398438 C 171.074219 202.351562 171.976562 201.226562 172.648438 200.925781 C 173.25 200.699219 174 201 174.675781 201.375 C 175.726562 201.976562 177.074219 203.550781 177.976562 204.75 C 178.800781 205.949219 180 207.523438 179.925781 208.648438 C 179.851562 209.476562 179.023438 210.523438 178.425781 210.824219 C 177.824219 211.050781 177.148438 210.976562 176.25 210.523438 C 174.226562 209.550781 168.375 203.851562 167.398438 202.050781 C 167.101562 201.375 167.023438 200.925781 167.175781 200.398438 C 167.324219 199.875 167.925781 199.050781 168.523438 198.824219 C 169.050781 198.601562 169.949219 198.675781 170.625 198.976562 C 171.375 199.425781 171.75 200.25 172.574219 201.375 C 174.226562 203.925781 179.398438 212.023438 179.550781 214.199219 C 179.550781 214.875 179.324219 215.25 178.949219 215.625 C 178.5 216.074219 177.824219 216.449219 177 216.375 C 175.5 216.148438 173.101562 213.375 171.148438 212.476562 C 169.5 211.800781 166.648438 212.101562 166.351562 211.351562 C 166.050781 210.601562 168.375 208.425781 168.300781 208.351562 C 168.300781 208.351562 167.476562 208.949219 167.550781 209.101562 C 167.699219 209.398438 169.949219 209.023438 170.550781 209.476562 C 171.074219 209.925781 171.300781 211.050781 171.226562 211.648438 C 171.074219 212.324219 170.398438 213.226562 169.800781 213.523438 C 169.199219 213.75 168.074219 213.675781 167.476562 213.300781 C 166.949219 213 166.351562 212.023438 166.351562 211.351562 C 166.351562 210.675781 166.800781 209.699219 167.324219 209.25 C 167.925781 208.875 168.976562 208.726562 169.648438 208.949219 C 170.25 209.175781 171.074219 209.925781 171.148438 210.601562 C 171.300781 211.425781 170.773438 213.148438 170.023438 213.375 C 168.898438 213.75 164.851562 211.425781 164.324219 210.074219 C 163.949219 209.101562 164.398438 207.449219 165.148438 206.925781 C 165.976562 206.25 167.851562 206.699219 169.425781 207.148438 C 171.675781 207.675781 175.5 209.324219 177.148438 210.601562 C 178.199219 211.351562 178.949219 212.324219 179.25 213.148438 C 179.550781 213.675781 179.625 214.199219 179.476562 214.726562 C 179.175781 215.324219 178.199219 216.300781 177.523438 216.375 C 176.851562 216.449219 176.175781 215.925781 175.273438 215.175781 C 173.175781 213.148438 167.625 204.074219 167.175781 201.523438 C 167.023438 200.550781 167.25 199.949219 167.625 199.5 C 168 198.976562 168.75 198.523438 169.574219 198.675781 C 171.75 199.050781 179.101562 206.101562 179.851562 208.050781 C 180.074219 208.726562 179.851562 209.25 179.625 209.699219 C 179.398438 210.148438 178.949219 210.675781 178.425781 210.824219 C 177.75 210.976562 176.699219 210.75 175.875 210.226562 C 174.375 209.175781 171.449219 205.648438 171.148438 203.925781 C 171 202.875 171.523438 201.523438 172.125 201.148438 C 172.726562 200.773438 173.851562 200.925781 174.675781 201.375 C 175.949219 202.273438 177.300781 205.425781 177.976562 207.300781 C 178.574219 208.800781 179.398438 210.898438 178.800781 211.648438 C 178.199219 212.324219 175.875 212.324219 174.375 211.574219 C 171.75 210.226562 166.5 203.398438 166.050781 201.148438 C 165.824219 200.25 166.199219 199.425781 166.648438 198.976562 C 167.023438 198.601562 167.625 198.375 168.449219 198.601562 C 170.851562 199.273438 176.851562 207 180.675781 210.226562 C 183.824219 212.851562 189.148438 215.101562 189.75 216.898438 C 189.976562 217.726562 189.449219 218.773438 188.925781 219.148438 C 188.324219 219.523438 187.5 219.601562 186.449219 219.226562 C 183.824219 218.175781 175.726562 209.625 174.375 207.375 C 174 206.699219 173.925781 206.324219 173.925781 205.875 C 174 205.351562 174.300781 204.75 174.601562 204.375 C 174.976562 204 175.648438 203.773438 176.101562 203.699219 C 176.625 203.699219 177.148438 203.773438 177.675781 204.226562 C 178.800781 205.199219 181.425781 209.398438 181.425781 210.898438 C 181.5 211.726562 181.050781 212.398438 180.601562 212.773438 C 180.074219 213.148438 179.476562 213.375 178.574219 213.148438 C 176.175781 212.625 168.226562 207 166.875 204.976562 C 166.351562 204.226562 166.273438 203.550781 166.425781 203.023438 C 166.574219 202.425781 167.25 201.675781 167.851562 201.523438 C 168.449219 201.375 169.273438 201.523438 170.175781 202.199219 C 172.800781 204 180.601562 214.5 181.351562 217.574219 C 181.574219 218.773438 181.351562 219.675781 180.824219 220.199219 C 180.300781 220.726562 179.324219 220.949219 178.199219 220.726562 C 175.875 220.273438 169.875 215.925781 168.523438 214.125 C 167.925781 213.375 167.625 212.699219 167.773438 212.023438 C 167.851562 211.425781 168.375 210.523438 169.050781 210.226562 C 169.648438 210 170.699219 210.074219 171.675781 210.601562 C 173.699219 211.648438 178.351562 217.050781 179.101562 218.851562 C 179.398438 219.523438 179.398438 219.976562 179.25 220.425781 C 179.101562 220.949219 178.726562 221.476562 178.273438 221.773438 C 177.824219 222 177.148438 222.148438 176.625 222.074219 C 176.175781 222 175.273438 221.25 175.273438 221.25 " clip-rule="nonzero"/></clipPath><clipPath id="e22b7a27de"><path d="M 163.574219 211.816406 L 174.75 211.816406 L 174.75 223.921875 L 163.574219 223.921875 Z M 163.574219 211.816406 " clip-rule="nonzero"/></clipPath><clipPath id="0784f5d2e4"><path d="M 168.074219 213.226562 C 174.824219 221.324219 174.675781 222.148438 174.375 222.75 C 174 223.351562 173.023438 223.875 172.351562 223.875 C 171.675781 223.949219 170.699219 223.425781 170.25 222.898438 C 169.875 222.375 169.726562 221.25 169.949219 220.648438 C 170.175781 219.976562 171 219.226562 171.601562 219.074219 C 172.273438 218.925781 173.324219 219.148438 173.851562 219.601562 C 174.375 220.050781 174.75 221.101562 174.675781 221.773438 C 174.601562 222.449219 174 223.351562 173.398438 223.648438 C 172.800781 223.949219 171.976562 224.023438 171.074219 223.574219 C 169.199219 222.75 165.148438 217.648438 164.175781 215.851562 C 163.726562 215.023438 163.574219 214.5 163.648438 213.898438 C 163.800781 213.226562 164.324219 212.398438 164.851562 212.101562 C 165.375 211.800781 166.425781 211.800781 166.949219 212.023438 C 167.476562 212.25 168.074219 213.226562 168.074219 213.226562 " clip-rule="nonzero"/></clipPath><clipPath id="7b9e5eaabb"><path d="M 162.3125 209.9375 L 175.714844 209.9375 L 175.714844 224.996094 L 162.3125 224.996094 Z M 162.3125 209.9375 " clip-rule="nonzero"/></clipPath><clipPath id="065c7733d4"><path d="M 166.800781 211.800781 C 169.273438 217.574219 175.199219 220.125 175.648438 222 C 175.800781 222.976562 174.976562 224.324219 174.300781 224.773438 C 173.699219 225.074219 172.574219 225.074219 171.976562 224.699219 C 171.300781 224.398438 170.699219 223.425781 170.625 222.75 C 170.550781 222.074219 171 221.023438 171.523438 220.574219 C 172.050781 220.125 173.175781 219.898438 173.851562 220.050781 C 174.523438 220.273438 175.351562 221.101562 175.574219 221.699219 C 175.726562 222.375 175.574219 223.5 175.125 224.023438 C 174.601562 224.625 173.324219 225.074219 172.199219 224.851562 C 170.101562 224.398438 165.976562 221.023438 164.398438 218.625 C 162.976562 216.601562 162.148438 213.074219 162.375 211.726562 C 162.523438 211.050781 162.898438 210.675781 163.351562 210.375 C 163.726562 210.074219 164.398438 209.925781 164.925781 210 C 165.601562 210.226562 166.875 211.800781 166.875 211.800781 " clip-rule="nonzero"/></clipPath><clipPath id="2f708db4ff"><path d="M 163.527344 213.175781 L 167.785156 213.175781 L 167.785156 216.824219 L 163.527344 216.824219 Z M 163.527344 213.175781 " clip-rule="nonzero"/></clipPath><clipPath id="d296dfb397"><path d="M 167.773438 214.5 C 165.898438 217.5 164.101562 216.976562 163.726562 216.300781 C 163.351562 215.699219 163.648438 213.824219 164.25 213.375 C 164.851562 212.925781 167.25 213.523438 167.25 213.523438 " clip-rule="nonzero"/></clipPath><clipPath id="8167cea25b"><path d="M 163.226562 213.625 L 167.488281 213.625 L 167.488281 217.273438 L 163.226562 217.273438 Z M 163.226562 213.625 " clip-rule="nonzero"/></clipPath><clipPath id="35cc32d80f"><path d="M 167.476562 214.949219 C 165.601562 217.949219 163.800781 217.425781 163.425781 216.75 C 163.050781 216.148438 163.351562 214.273438 163.949219 213.824219 C 164.550781 213.375 166.949219 213.976562 166.949219 213.976562 " clip-rule="nonzero"/></clipPath><clipPath id="b7b1f3322e"><path d="M 163 211.484375 L 169.640625 211.484375 L 169.640625 219.65625 L 163 219.65625 Z M 163 211.484375 " clip-rule="nonzero"/></clipPath><clipPath id="a4883ba6e5"><path d="M 165.074219 217.949219 C 162.976562 213.898438 162.898438 213.375 163.199219 212.925781 C 163.574219 212.324219 164.699219 211.425781 165.449219 211.5 C 166.199219 211.5 167.324219 212.398438 167.550781 213.074219 C 167.773438 213.675781 167.476562 214.875 167.023438 215.398438 C 166.648438 215.851562 165.601562 216.226562 165 216.074219 C 164.324219 216 163.5 215.398438 163.273438 214.800781 C 162.976562 214.199219 162.976562 213.148438 163.351562 212.625 C 163.800781 212.023438 165.226562 211.351562 165.976562 211.574219 C 166.648438 211.726562 167.625 213.074219 167.699219 213.75 C 167.773438 214.425781 167.25 215.398438 166.648438 215.699219 C 166.050781 216.074219 164.476562 216 163.875 215.625 C 163.351562 215.175781 163.125 213.523438 163.050781 213.601562 C 162.976562 213.601562 163.125 214.574219 163.125 214.574219 C 163.199219 214.574219 162.976562 213.375 163.199219 212.925781 C 163.425781 212.398438 163.800781 211.875 164.324219 211.726562 C 165 211.5 166.199219 211.648438 166.949219 212.101562 C 167.925781 212.773438 168.898438 214.726562 169.273438 215.773438 C 169.574219 216.601562 169.726562 217.351562 169.5 217.949219 C 169.351562 218.550781 168.675781 219.300781 168.148438 219.523438 C 167.550781 219.75 166.5 219.601562 165.976562 219.300781 C 165.523438 219 165.074219 217.949219 165.074219 217.949219 " clip-rule="nonzero"/></clipPath><clipPath id="5f451908b7"><path d="M 161.617188 210.59375 L 174.453125 210.59375 L 174.453125 225.550781 L 161.617188 225.550781 Z M 161.617188 210.59375 " clip-rule="nonzero"/></clipPath><clipPath id="75eb070833"><path d="M 170.476562 225 C 162.523438 215.398438 161.625 214.425781 161.625 213.375 C 161.699219 212.476562 162.449219 211.050781 163.125 210.75 C 163.875 210.449219 165.601562 210.898438 166.125 211.5 C 166.574219 212.023438 166.726562 213.148438 166.574219 213.824219 C 166.425781 214.351562 166.050781 214.800781 165.601562 215.101562 C 165.074219 215.398438 163.949219 215.625 163.273438 215.398438 C 162.601562 215.175781 161.851562 214.351562 161.699219 213.675781 C 161.550781 212.851562 162.226562 211.273438 162.898438 210.824219 C 163.648438 210.449219 164.851562 210.601562 165.898438 211.273438 C 168.300781 212.699219 173.625 220.574219 174.300781 222.75 C 174.523438 223.425781 174.375 223.875 174.226562 224.324219 C 174 224.773438 173.550781 225.300781 173.023438 225.523438 C 172.425781 225.675781 170.476562 225 170.476562 225 " clip-rule="nonzero"/></clipPath><clipPath id="c6e100e768"><path d="M 182.046875 179.277344 L 197.304688 179.277344 L 197.304688 194.863281 L 182.046875 194.863281 Z M 182.046875 179.277344 " clip-rule="nonzero"/></clipPath><clipPath id="bb04c9443a"><path d="M 187.875 182.175781 C 197.324219 192.148438 197.101562 193.273438 196.648438 193.875 C 196.351562 194.398438 195.675781 194.699219 195.148438 194.773438 C 194.550781 194.851562 193.875 194.851562 193.351562 194.476562 C 192.601562 193.875 192.449219 192.300781 191.550781 191.023438 C 190.273438 189.226562 187.800781 186.074219 186.148438 185.023438 C 185.101562 184.351562 183.824219 184.648438 183.148438 184.125 C 182.625 183.824219 182.25 183.375 182.175781 182.773438 C 182.101562 181.949219 182.550781 180.226562 183.300781 179.773438 C 183.976562 179.324219 185.773438 179.550781 186.449219 180 C 187.050781 180.449219 187.425781 181.648438 187.351562 182.324219 C 187.199219 183.074219 186.523438 184.050781 185.851562 184.351562 C 185.25 184.726562 184.050781 184.574219 183.375 184.273438 C 182.851562 184.050781 182.476562 183.601562 182.25 183.074219 C 182.023438 182.398438 182.101562 181.199219 182.476562 180.601562 C 182.851562 179.925781 183.75 179.398438 184.648438 179.324219 C 186.148438 179.324219 189 181.125 190.648438 182.398438 C 192.074219 183.449219 193.125 184.726562 194.175781 186.148438 C 195.300781 187.726562 196.875 190.199219 197.175781 191.550781 C 197.324219 192.300781 197.324219 192.824219 197.023438 193.351562 C 196.726562 193.949219 195.824219 194.699219 195.148438 194.773438 C 194.476562 194.925781 193.726562 194.550781 192.898438 194.023438 C 191.699219 193.273438 189.75 191.175781 188.925781 189.976562 C 188.398438 189.148438 188.625 188.398438 188.023438 187.648438 C 187.273438 186.675781 184.800781 185.925781 184.425781 184.875 C 184.125 184.125 184.425781 182.851562 184.875 182.324219 C 185.175781 181.949219 185.851562 181.726562 186.375 181.648438 C 186.824219 181.648438 187.875 182.175781 187.875 182.175781 " clip-rule="nonzero"/></clipPath><clipPath id="fdbbae374a"><path d="M 162.265625 212.066406 L 172.835938 212.066406 L 172.835938 224.246094 L 162.265625 224.246094 Z M 162.265625 212.066406 " clip-rule="nonzero"/></clipPath><clipPath id="7a267ebd0f"><path d="M 166.648438 213.375 C 172.949219 221.925781 172.648438 223.050781 172.125 223.574219 C 171.523438 224.101562 170.023438 224.324219 169.351562 223.949219 C 168.675781 223.574219 167.925781 222 168.074219 221.175781 C 168.148438 220.5 168.976562 219.675781 169.574219 219.449219 C 170.175781 219.226562 171.300781 219.300781 171.824219 219.75 C 172.5 220.199219 172.949219 221.851562 172.800781 222.601562 C 172.574219 223.199219 171.675781 223.949219 171.074219 224.101562 C 170.550781 224.324219 169.949219 224.25 169.5 224.023438 C 168.898438 223.726562 168.226562 222.824219 168.074219 222.226562 C 167.925781 221.699219 168 221.175781 168.226562 220.648438 C 168.523438 220.125 169.425781 219.449219 170.101562 219.300781 C 170.773438 219.226562 171.824219 219.523438 172.273438 220.050781 C 172.726562 220.726562 172.800781 222.449219 172.5 223.125 C 172.273438 223.648438 171.601562 223.949219 171.074219 224.101562 C 170.550781 224.25 170.023438 224.324219 169.351562 223.949219 C 167.773438 223.125 164.101562 218.25 163.050781 216.449219 C 162.523438 215.625 162.300781 215.023438 162.300781 214.351562 C 162.300781 213.824219 162.523438 213.226562 162.898438 212.851562 C 163.351562 212.398438 164.324219 212.023438 164.925781 212.101562 C 165.523438 212.25 166.648438 213.375 166.648438 213.375 " clip-rule="nonzero"/></clipPath><clipPath id="ff55e049f3"><path d="M 160.816406 211.21875 L 173.308594 211.21875 L 173.308594 225.933594 L 160.816406 225.933594 Z M 160.816406 211.21875 " clip-rule="nonzero"/></clipPath><clipPath id="c0217cbd76"><path d="M 169.125 225.226562 C 160.648438 213.375 160.875 212.550781 161.324219 212.023438 C 161.851562 211.5 163.574219 211.050781 164.25 211.351562 C 165 211.726562 165.75 213.226562 165.675781 214.050781 C 165.675781 214.726562 164.925781 215.625 164.324219 215.925781 C 163.726562 216.226562 162.523438 216.226562 162 215.773438 C 161.324219 215.324219 160.726562 213.824219 160.875 213 C 160.949219 212.324219 161.773438 211.5 162.449219 211.273438 C 163.199219 211.125 164.25 211.5 165.300781 212.25 C 167.476562 213.824219 172.648438 221.101562 173.175781 223.199219 C 173.324219 223.949219 173.175781 224.398438 172.949219 224.851562 C 172.648438 225.300781 172.199219 225.75 171.675781 225.898438 C 171 226.050781 169.125 225.226562 169.125 225.226562 " clip-rule="nonzero"/></clipPath></defs><path stroke-linecap="butt" transform="matrix(0.75, 0.000000000000000119, -0.000000000000000119, 0.75, 37.500002, 59.334431)" fill="none" stroke-linejoin="miter" d="M -0.00000271667 4.00201 L 89.812503 4.00201 " stroke="#000000" stroke-width="8" stroke-opacity="1" stroke-miterlimit="4"/><path stroke-linecap="butt" transform="matrix(0.456579, 0.595009, -0.595009, 0.456579, 43.197489, 61.035596)" fill="none" stroke-linejoin="miter" d="M 0.000600293 4.002219 L 461.575487 4.000844 " stroke="#000000" stroke-width="8" stroke-opacity="1" stroke-miterlimit="4"/><path stroke-linecap="butt" transform="matrix(0.75, 0, 0, 0.75, 246.509489, 331.499978)" fill="none" stroke-linejoin="miter" d="M -0.00223548 4.000029 L 89.81027 4.000029 " stroke="#000000" stroke-width="8" stroke-opacity="1" stroke-miterlimit="4"/><path stroke-linecap="butt" transform="matrix(0.456579, 0.595009, -0.595009, 0.456579, 103.119672, 59.209278)" fill="none" stroke-linejoin="miter" d="M -0.00156106 4.001079 L 461.577458 4.002874 " stroke="#000000" stroke-width="8" stroke-opacity="1" stroke-miterlimit="4"/><path stroke-linecap="butt" transform="matrix(-0.47287, 0.582146, -0.582146, -0.47287, 298.378257, 63.870464)" fill="none" stroke-linejoin="miter" d="M 0.000851393 5.997008 L 474.911656 6.002686 " stroke="#000000" stroke-width="12" stroke-opacity="1" stroke-miterlimit="4"/><g clip-path="url(#aee8622bd4)"><g clip-path="url(#0899e71d8d)"><path fill="#ffffff" d="M 168.898438 192 L 190.574219 192 L 190.574219 215.367188 L 168.898438 215.367188 Z M 168.898438 192 " fill-opacity="1" fill-rule="nonzero"/></g></g><g clip-path="url(#f99061c920)"><g clip-path="url(#3d746c1e18)"><g mask="url(#a8ba40fab2)"><g transform="matrix(1, 0, 0, 1, 173, 185)"><g clip-path="url(#30afa3a565)"><g clip-path="url(#6b76766377)"><g clip-path="url(#15cbe275b6)"><rect x="-255.5" width="540" fill="#fff234" height="539.999987" y="-267.499998" fill-opacity="1"/></g></g></g></g></g></g></g><g clip-path="url(#dd2315596b)"><g clip-path="url(#3a152f2ce7)"><path fill="#ffffff" d="M 169.125 181.5 L 199.753906 181.5 L 199.753906 211.199219 L 169.125 211.199219 Z M 169.125 181.5 " fill-opacity="1" fill-rule="nonzero"/></g></g><g clip-path="url(#51e061f0ab)"><g clip-path="url(#9f87ea11d8)"><path fill="#ffffff" d="M 178.949219 177.601562 L 199.125 177.601562 L 199.125 198.5625 L 178.949219 198.5625 Z M 178.949219 177.601562 " fill-opacity="1" fill-rule="nonzero"/></g></g><g clip-path="url(#e34b97b4dc)"><g clip-path="url(#345929934c)"><path fill="#ffffff" d="M 159.601562 207.601562 L 180.003906 207.601562 L 180.003906 226.875 L 159.601562 226.875 Z M 159.601562 207.601562 " fill-opacity="1" fill-rule="nonzero"/></g></g><g clip-path="url(#02c7da3d0b)"><g clip-path="url(#46fdafa4c1)"><path fill="#ffffff" d="M 161.324219 195.601562 L 192.757812 195.601562 L 192.757812 225.074219 L 161.324219 225.074219 Z M 161.324219 195.601562 " fill-opacity="1" fill-rule="nonzero"/></g></g><g clip-path="url(#e22b7a27de)"><g clip-path="url(#0784f5d2e4)"><path fill="#ffffff" d="M 160.648438 209.023438 L 177.675781 209.023438 L 177.675781 226.980469 L 160.648438 226.980469 Z M 160.648438 209.023438 " fill-opacity="1" fill-rule="nonzero"/></g></g><g clip-path="url(#7b9e5eaabb)"><g clip-path="url(#065c7733d4)"><path fill="#ffffff" d="M 159.375 207 L 178.648438 207 L 178.648438 227.855469 L 159.375 227.855469 Z M 159.375 207 " fill-opacity="1" fill-rule="nonzero"/></g></g><g clip-path="url(#2f708db4ff)"><g clip-path="url(#d296dfb397)"><path fill="#ffffff" d="M 160.726562 210.375 L 170.855469 210.375 L 170.855469 220.199219 L 160.726562 220.199219 Z M 160.726562 210.375 " fill-opacity="1" fill-rule="nonzero"/></g></g><g clip-path="url(#8167cea25b)"><g clip-path="url(#35cc32d80f)"><path fill="#ffffff" d="M 160.425781 210.824219 L 170.558594 210.824219 L 170.558594 220.648438 L 160.425781 220.648438 Z M 160.425781 210.824219 " fill-opacity="1" fill-rule="nonzero"/></g></g><g clip-path="url(#b7b1f3322e)"><g clip-path="url(#a4883ba6e5)"><path fill="#ffffff" d="M 160.050781 208.5 L 172.574219 208.5 L 172.574219 222.589844 L 160.050781 222.589844 Z M 160.050781 208.5 " fill-opacity="1" fill-rule="nonzero"/></g></g><g clip-path="url(#5f451908b7)"><g clip-path="url(#75eb070833)"><path fill="#ffffff" d="M 158.625 207.75 L 177.300781 207.75 L 177.300781 228.539062 L 158.625 228.539062 Z M 158.625 207.75 " fill-opacity="1" fill-rule="nonzero"/></g></g><g clip-path="url(#c6e100e768)"><g clip-path="url(#bb04c9443a)"><path fill="#ffffff" d="M 179.175781 176.324219 L 200.175781 176.324219 L 200.175781 197.734375 L 179.175781 197.734375 Z M 179.175781 176.324219 " fill-opacity="1" fill-rule="nonzero"/></g></g><g clip-path="url(#fdbbae374a)"><g clip-path="url(#7a267ebd0f)"><path fill="#ffffff" d="M 159.300781 209.101562 L 175.800781 209.101562 L 175.800781 227.082031 L 159.300781 227.082031 Z M 159.300781 209.101562 " fill-opacity="1" fill-rule="nonzero"/></g></g><g clip-path="url(#ff55e049f3)"><g clip-path="url(#c0217cbd76)"><path fill="#ffffff" d="M 157.875 208.273438 L 176.25 208.273438 L 176.25 228.875 L 157.875 228.875 Z M 157.875 208.273438 " fill-opacity="1" fill-rule="nonzero"/></g></g></svg>